<?xml version="1.0" standalone="no"?><!DOCTYPE svg PUBLIC "-//W3C//DTD SVG 1.1//EN" "http://www.w3.org/Graphics/SVG/1.1/DTD/svg11.dtd"><svg t="1710816748676" class="icon" viewBox="0 0 1024 1024" version="1.1" xmlns="http://www.w3.org/2000/svg" p-id="4235" xmlns:xlink="http://www.w3.org/1999/xlink" width="200" height="200"><path d="M765.505691 191.942567 639.627772 191.942567c0-35.32453-28.636201-63.960731-63.960731-63.960731L447.74558 127.981836c-35.32453 0-63.960731 28.636201-63.960731 63.960731L257.905908 191.942567c-36.452213 0-66.00325 29.551036-66.00325 66.00325l0 59.875692c0 36.452213 29.551036 66.00325 66.00325 66.00325l-2.042519 0 0 445.681572c0 36.452213 29.551036 66.00325 66.00325 66.00325l61.918211 0 63.960731 0 127.921461 0 63.960731 0 61.918211 0c36.452213 0 66.00325-29.551036 66.00325-66.00325L767.549234 383.823736l-2.042519 0c36.452213 0 66.00325-29.551036 66.00325-66.00325l0-59.875692C831.508941 221.49258 801.958928 191.942567 765.505691 191.942567zM703.58748 803.413046c-0.101307 3.123131-1.743714 27.813462-27.961842 28.134781l-35.998889 0-63.960731 0L447.74558 831.547827 383.78485 831.547827l-35.879162 0c-27.988448-0.343831-27.969005-28.459169-27.969005-28.459169l-0.112564 0.031722L319.824119 383.823736l383.76336 0L703.58748 803.413046zM735.567845 319.863005 287.843754 319.863005c-17.662265 0-31.980365-14.3181-31.980365-31.980365 0-17.662265 14.3181-31.980365 31.980365-31.980365l159.901827 0 127.921461 0 159.901827 0c17.662265 0 31.980365 14.3181 31.980365 31.980365C767.54821 305.544905 753.23011 319.863005 735.567845 319.863005z" p-id="4236" fill="#ffffff"></path><path d="M447.74558 767.588119c17.662265 0 31.980365-14.3181 31.980365-31.980365L479.725946 479.764831c0-17.662265-14.3181-31.980365-31.980365-31.980365-17.662265 0-31.980365 14.3181-31.980365 31.980365l0 255.842922C415.765215 753.270019 430.083316 767.588119 447.74558 767.588119z" p-id="4237" fill="#ffffff"></path><path d="M575.667042 767.588119c17.662265 0 31.980365-14.3181 31.980365-31.980365L607.647407 479.764831c0-17.662265-14.3181-31.980365-31.980365-31.980365-17.662265 0-31.980365 14.3181-31.980365 31.980365l0 255.842922C543.686676 753.270019 558.004777 767.588119 575.667042 767.588119z" p-id="4238" fill="#ffffff"></path></svg>