<?xml version="1.0" standalone="no"?><!DOCTYPE svg PUBLIC "-//W3C//DTD SVG 1.1//EN" "http://www.w3.org/Graphics/SVG/1.1/DTD/svg11.dtd"><svg t="1719912646310" class="icon" viewBox="0 0 1024 1024" version="1.1" xmlns="http://www.w3.org/2000/svg" p-id="1249" xmlns:xlink="http://www.w3.org/1999/xlink" width="200" height="200"><path d="M546.34571852 512l241.02684445-241.02684445c9.46631111-9.46631111 9.46631111-24.87940741 0-34.34571852s-24.87940741-9.46631111-34.34571852 0L512 477.65428148 270.97315555 236.62743703c-9.46631111-9.46631111-24.87940741-9.46631111-34.34571852 0s-9.46631111 24.87940741 0 34.34571852L477.65428148 512 236.62743703 753.02684445c-9.46631111 9.46631111-9.46631111 24.87940741 0 34.34571852 4.73315555 4.73315555 10.92266667 7.16041482 17.11217779 7.16041481s12.37902222-2.42725925 17.11217777-7.16041481L512 546.34571852l241.02684445 241.02684445c4.73315555 4.73315555 10.92266667 7.16041482 17.11217777 7.16041481s12.37902222-2.42725925 17.11217778-7.16041481c9.46631111-9.46631111 9.46631111-24.87940741 0-34.34571852L546.34571852 512z" p-id="1250" fill="#d81e06"></path></svg>